<svg width="512" height="512" viewBox="0 0 512 512" fill="none" xmlns="http://www.w3.org/2000/svg">
<g clip-path="url(#clip0_1_2)">
<path d="M104.33 340.343C154.83 400.709 215.62 448.239 285.005 481.87C311.421 494.389 346.75 509.242 386.11 511.788C388.55 511.894 390.884 512 393.324 512C419.741 512 440.96 502.876 458.253 484.098C458.359 483.992 458.571 483.78 458.677 483.567C464.83 476.141 471.833 469.457 479.153 462.349C484.139 457.575 489.232 452.588 494.112 447.496C516.709 423.944 516.709 394.026 493.9 371.216L430.138 307.455C419.317 296.209 406.374 290.268 392.794 290.268C379.214 290.268 366.165 296.209 355.025 307.349L317.044 345.329C313.543 343.314 309.936 341.51 306.541 339.813C302.297 337.691 298.372 335.675 294.871 333.447C260.285 311.486 228.882 282.841 198.858 246.027C183.687 226.825 173.502 210.699 166.394 194.254C176.366 185.237 185.702 175.794 194.72 166.564C197.903 163.276 201.192 159.987 204.481 156.698C215.939 145.24 222.092 131.978 222.092 118.505C222.092 105.031 216.045 91.7696 204.481 80.3116L172.865 48.6962C169.152 44.983 165.651 41.3759 162.044 37.6627C155.042 30.4484 147.721 23.022 140.507 16.3382C129.58 5.62288 116.743 0 103.163 0C89.6891 0 76.7459 5.62288 65.3941 16.4443L25.7157 56.1227C11.2871 70.5512 3.11806 88.0564 1.42059 108.32C-0.595157 133.676 4.07289 160.623 16.1674 193.194C34.7335 243.587 62.7418 290.374 104.33 340.343ZM27.307 110.548C28.5801 96.4376 33.9908 84.6614 44.1757 74.4766L83.6419 35.0104C89.7952 29.0692 96.5851 25.9925 103.163 25.9925C109.634 25.9925 116.212 29.0692 122.259 35.2225C129.368 41.8002 136.051 48.6962 143.266 56.0166C146.873 59.7298 150.586 63.443 154.299 67.2623L185.915 98.8777C192.492 105.455 195.887 112.139 195.887 118.717C195.887 125.295 192.492 131.978 185.915 138.556C182.626 141.845 179.337 145.24 176.048 148.529C166.181 158.501 156.951 167.944 146.767 176.961L146.236 177.492C137.431 186.298 138.81 194.679 140.932 201.044C141.038 201.363 141.144 201.575 141.25 201.893C149.419 221.52 160.771 240.192 178.488 262.472C210.316 301.726 243.841 332.174 280.761 355.62C285.323 358.591 290.203 360.925 294.765 363.259C299.009 365.381 302.934 367.397 306.435 369.625C306.859 369.837 307.178 370.049 307.602 370.261C311.103 372.065 314.498 372.913 317.893 372.913C326.38 372.913 331.897 367.503 333.701 365.699L373.379 326.021C379.532 319.867 386.216 316.579 392.794 316.579C400.857 316.579 407.435 321.565 411.572 326.021L475.546 389.888C488.277 402.619 488.171 416.411 475.227 429.885C470.772 434.659 466.104 439.221 461.117 443.995C453.691 451.209 445.946 458.636 438.944 467.017C426.743 480.172 412.209 486.326 393.431 486.326C391.627 486.326 389.717 486.22 387.914 486.114C353.116 483.886 320.757 470.306 296.462 458.742C230.473 426.808 172.547 381.507 124.487 324.005C84.915 276.37 58.2859 232.023 40.6746 184.494C29.7472 155.319 25.6096 131.872 27.307 110.548Z" fill="#F1690A"/>
</g>
<defs>
<clipPath id="clip0_1_2">
<rect width="512" height="512" fill="white"/>
</clipPath>
</defs>
</svg>
