<svg width="512" height="512" viewBox="0 0 512 512" fill="none" xmlns="http://www.w3.org/2000/svg">
<path d="M467 76H45C20.238 76 0 96.149 0 121V391C0 415.86 20.251 436 45 436H467C491.762 436 512 415.851 512 391V121C512 96.143 491.752 76 467 76ZM460.09 106L267.624 299.094C261.76 304.976 250.243 304.98 244.376 299.094L51.91 106H460.09ZM30 385.485V126.515L159.065 256L30 385.485ZM51.91 406L180.244 277.248L223.129 320.273C240.703 337.904 271.304 337.897 288.872 320.273L331.757 277.249L460.09 406H51.91ZM482 385.485L352.935 256L482 126.515V385.485Z" fill="black"/>
</svg>
